<?xml version="1.0" standalone="no"?>
<!DOCTYPE svg PUBLIC "-//W3C//DTD SVG 20010904//EN"
 "http://www.w3.org/TR/2001/REC-SVG-20010904/DTD/svg10.dtd">
<svg version="1.0" xmlns="http://www.w3.org/2000/svg"
 width="2048.000000pt" height="2048.000000pt" viewBox="432.5 433.8 1180.0 1180.0"
 preserveAspectRatio="xMidYMid meet">

<g transform="translate(0.000000,2048.000000) scale(0.100000,-0.100000)"
fill="#4f39f6" stroke="none">
<path d="M14730 14373 c-1150 -63 -2187 -414 -2960 -1003 -352 -269 -699 -626
-955 -985 -202 -283 -401 -652 -530 -980 -33 -83 -45 -105 -51 -90 -33 96
-134 326 -215 490 -341 691 -857 1268 -1483 1657 -646 402 -1428 636 -2291
688 -200 12 -584 12 -540 0 17 -4 125 -31 241 -59 373 -90 645 -189 994 -362
237 -118 424 -230 624 -373 347 -248 692 -584 932 -906 98 -132 98 -135 7 -48
-364 345 -961 687 -1533 878 -667 223 -1297 281 -2060 188 l-185 -23 85 -8
c444 -42 762 -104 1135 -224 1015 -326 1855 -936 2442 -1773 254 -362 445
-716 823 -1525 300 -643 481 -990 686 -1318 82 -130 274 -410 321 -466 l29
-33 106 148 c321 449 486 750 923 1679 348 740 533 1088 756 1422 325 485 706
874 1134 1158 308 205 618 356 1025 500 91 32 171 63 177 69 11 10 437 901
560 1171 25 55 53 108 61 118 14 16 9 17 -94 15 -60 -1 -134 -3 -164 -5z
m-753 -730 c-6 -16 -62 -138 -123 -273 l-111 -245 -44 -8 c-614 -110 -1071
-283 -1513 -574 -493 -324 -862 -707 -1157 -1201 -46 -77 -85 -139 -87 -137
-7 7 148 328 225 468 194 349 410 636 692 918 424 424 869 706 1426 904 203
72 591 173 672 174 32 1 32 0 20 -26z m-3676 -2924 c86 -26 159 -126 159 -219
0 -67 -209 -1375 -218 -1365 -6 5 -136 785 -182 1089 -50 328 -49 353 23 431
61 67 134 89 218 64z"/>
<path d="M15865 12963 c-22 -1 -103 -8 -180 -13 -633 -49 -1335 -231 -1851
-480 -724 -348 -1245 -855 -1704 -1655 -122 -213 -325 -620 -560 -1120 -451
-963 -666 -1335 -1022 -1772 -32 -39 -58 -76 -58 -82 0 -14 152 -145 235 -201
129 -87 276 -151 445 -192 36 -8 120 -13 245 -13 166 1 202 4 285 24 357 89
628 288 846 621 150 230 231 392 587 1176 141 308 305 663 365 790 575 1199
1118 1936 1806 2451 223 166 516 339 746 440 l75 33 -110 -2 c-60 -1 -128 -3
-150 -5z"/>
<path d="M5295 12613 c-234 -7 -562 -49 -820 -107 l-150 -33 80 -18 c777 -171
1459 -646 1988 -1382 312 -434 541 -875 1059 -2033 227 -506 316 -698 474
-1010 305 -606 559 -986 869 -1295 199 -200 384 -335 610 -445 161 -79 278
-120 455 -158 117 -25 141 -27 375 -27 235 0 258 2 380 28 468 100 885 358
1232 762 106 123 248 313 240 321 -3 3 -22 -3 -44 -14 -88 -45 -285 -101 -428
-123 -116 -17 -332 -14 -450 6 -191 32 -431 126 -600 236 -258 168 -559 479
-814 844 -279 401 -459 730 -829 1515 -485 1031 -676 1372 -981 1753 -129 160
-349 383 -491 497 -582 465 -1343 706 -2155 683z"/>
</g>
</svg>
